<?xml version="1.0" encoding="UTF-8" standalone="no"?>
<!DOCTYPE svg PUBLIC "-//W3C//DTD SVG 1.1//EN" "http://www.w3.org/Graphics/SVG/1.1/DTD/svg11.dtd">
<svg width="100%" height="100%" viewBox="0 0 2560 2560" version="1.1" xmlns="http://www.w3.org/2000/svg" xmlns:xlink="http://www.w3.org/1999/xlink" xml:space="preserve" xmlns:serif="http://www.serif.com/" style="fill-rule:evenodd;clip-rule:evenodd;stroke-linejoin:round;stroke-miterlimit:2;">
    <path d="M0,551.759C212.504,1594.22 973.455,2353.13 2026.31,2560L0,2560L0,551.759ZM1960.46,991.411C2282.84,1398.44 2475.55,1912.72 2476,2471.64L2476,2473.57C1916.32,2473.57 1401.31,2280.77 993.824,1958.02C1082.1,1995.42 1179.15,2016.11 1281,2016.11C1688.06,2016.11 2018.54,1685.63 2018.54,1278.57C2018.54,1176.72 1997.85,1079.67 1960.46,991.411ZM2560,2008.24C2347.5,965.781 1586.55,206.873 533.691,0L2560,0L2560,2008.24ZM1281,681.069C1610.77,681.069 1878.5,948.8 1878.5,1278.57C1878.5,1608.34 1610.77,1876.07 1281,1876.07C951.231,1876.07 683.5,1608.34 683.5,1278.57C683.5,948.8 951.231,681.069 1281,681.069ZM1654.44,1278.57C1654.44,1484.68 1487.11,1652.01 1281,1652.01C1074.89,1652.01 907.563,1484.68 907.563,1278.57L1654.44,1278.57ZM601.547,1565.75C278.798,1158.26 85.999,643.253 85.999,83.567C645.668,83.567 1160.66,276.355 1568.17,599.112C1479.9,561.717 1382.85,541.029 1281,541.029C873.941,541.029 543.461,871.51 543.461,1278.57C543.461,1380.42 564.149,1477.47 601.547,1565.75Z" style="fill:url(#_Linear1);"/>
    <defs>
        <linearGradient id="_Linear1" x1="0" y1="0" x2="1" y2="0" gradientUnits="userSpaceOnUse" gradientTransform="matrix(3757.97,0,0,3219.52,-478.646,1512.16)"><stop offset="0" style="stop-color:rgb(254,193,7);stop-opacity:1"/><stop offset="1" style="stop-color:rgb(244,171,66);stop-opacity:1"/></linearGradient>
    </defs>
</svg>
